<svg width="134" height="31" viewBox="0 0 134 31" fill="none" xmlns="http://www.w3.org/2000/svg">
<g filter="url(#filter0_d)">
<path d="M7.0968 22V16.54L4.2168 8.24H5.3568L7.6368 15.1H7.7568L10.0368 8.24H11.1368L8.2168 16.54V22H7.0968ZM15.0584 22.16C14.0184 22.16 13.2717 21.9867 12.8184 21.64C12.365 21.2933 12.065 20.6533 11.9184 19.72C11.785 18.7867 11.7184 17.2533 11.7184 15.12C11.7184 12.9867 11.785 11.4533 11.9184 10.52C12.065 9.58667 12.365 8.94667 12.8184 8.6C13.2717 8.25333 14.0184 8.08 15.0584 8.08C16.0984 8.08 16.845 8.25333 17.2984 8.6C17.7517 8.94667 18.045 9.58667 18.1784 10.52C18.325 11.4533 18.3984 12.9867 18.3984 15.12C18.3984 17.2533 18.325 18.7867 18.1784 19.72C18.045 20.6533 17.7517 21.2933 17.2984 21.64C16.845 21.9867 16.0984 22.16 15.0584 22.16ZM15.0584 21.14C15.765 21.14 16.2584 21.0333 16.5384 20.82C16.8184 20.6067 17.0117 20.1 17.1184 19.3C17.225 18.5 17.2784 17.1067 17.2784 15.12C17.2784 13.1333 17.225 11.74 17.1184 10.94C17.0117 10.14 16.8184 9.63333 16.5384 9.42C16.2584 9.20667 15.765 9.1 15.0584 9.1C14.3517 9.1 13.8584 9.20667 13.5784 9.42C13.2984 9.63333 13.105 10.1467 12.9984 10.96C12.8917 11.76 12.8384 13.1467 12.8384 15.12C12.8384 17.0933 12.8917 18.4867 12.9984 19.3C13.105 20.1 13.2984 20.6067 13.5784 20.82C13.8584 21.0333 14.3517 21.14 15.0584 21.14ZM26.6549 8.24V16.08C26.6549 17.8533 26.5949 19.14 26.4749 19.94C26.3549 20.7267 26.0749 21.2933 25.6349 21.64C25.2083 21.9867 24.5083 22.16 23.5349 22.16C22.5483 22.16 21.8349 21.9867 21.3949 21.64C20.9683 21.2933 20.6949 20.7267 20.5749 19.94C20.4549 19.14 20.3949 17.8533 20.3949 16.08V8.24H21.4949V16.76C21.4949 18.08 21.5349 19.0267 21.6149 19.6C21.6949 20.16 21.8683 20.56 22.1349 20.8C22.4149 21.0267 22.8816 21.14 23.5349 21.14C24.1749 21.14 24.6283 21.0267 24.8949 20.8C25.1749 20.56 25.3549 20.16 25.4349 19.6C25.5149 19.0267 25.5549 18.08 25.5549 16.76V8.24H26.6549ZM34.032 22L32.492 16.34H32.092H30.052V22H28.952V8.24H32.172C33.012 8.24 33.632 8.41333 34.032 8.76C34.4453 9.10667 34.7053 9.56 34.812 10.12C34.9186 10.6667 34.972 11.3933 34.972 12.3C34.972 13.34 34.8786 14.1667 34.692 14.78C34.5186 15.3933 34.132 15.8267 33.532 16.08L35.192 22H34.032ZM32.052 15.34C32.5986 15.34 32.9986 15.2333 33.252 15.02C33.5053 14.7933 33.6653 14.4733 33.732 14.06C33.812 13.6467 33.852 13.06 33.852 12.3C33.852 11.5267 33.812 10.94 33.732 10.54C33.6653 10.1267 33.5053 9.81333 33.252 9.6C32.9986 9.37333 32.5986 9.26 32.052 9.26H30.052V15.34H32.052ZM41.737 21.94C41.5103 22.0067 41.237 22.06 40.917 22.1C40.6103 22.14 40.3236 22.16 40.057 22.16C39.0836 22.16 38.3703 21.9867 37.917 21.64C37.477 21.2933 37.177 20.6467 37.017 19.7C36.857 18.74 36.777 17.2133 36.777 15.12C36.777 13.04 36.857 11.5267 37.017 10.58C37.177 9.62 37.477 8.96667 37.917 8.62C38.3703 8.26 39.0836 8.08 40.057 8.08C40.3503 8.08 40.6503 8.10667 40.957 8.16C41.277 8.2 41.5236 8.26 41.697 8.34V9.3C41.2303 9.16667 40.7436 9.1 40.237 9.1C39.4903 9.1 38.957 9.23333 38.637 9.5C38.3303 9.75333 38.1303 10.2733 38.037 11.06C37.9436 11.8467 37.897 13.2 37.897 15.12C37.897 17.04 37.9436 18.3933 38.037 19.18C38.1303 19.9667 38.3303 20.4933 38.637 20.76C38.957 21.0133 39.4903 21.14 40.237 21.14C40.477 21.14 40.737 21.12 41.017 21.08C41.3103 21.04 41.5503 20.9933 41.737 20.94V21.94ZM43.5046 22V8.24H44.6046V22H43.5046ZM52.197 22L48.217 11.08H48.137V22H47.077V8.24H48.257L52.197 19.04H52.277V8.24H53.337V22H52.197ZM55.7293 22V8.24H60.8893V9.26H56.8493V14.52H60.3893V15.56H56.8493V20.98H60.8893V22H55.7293ZM70.2829 22V10.38H70.1829L67.5829 22H66.3829L63.8229 10.38H63.7229V22H62.6629V8.24H64.3229L66.9629 20.04H67.0829L69.7429 8.24H71.3629V22H70.2829ZM79.1566 22L78.2966 17.96H74.8566L74.0166 22H72.8966L75.8766 8.24H77.3166L80.2966 22H79.1566ZM76.6366 9.9H76.5166L75.0366 16.96H78.1166L76.6366 9.9ZM81.6826 22V20.44H82.9426V22H81.6826ZM89.8424 21.94C89.6158 22.0067 89.3424 22.06 89.0224 22.1C88.7158 22.14 88.4291 22.16 88.1624 22.16C87.1891 22.16 86.4758 21.9867 86.0224 21.64C85.5824 21.2933 85.2824 20.6467 85.1224 19.7C84.9624 18.74 84.8824 17.2133 84.8824 15.12C84.8824 13.04 84.9624 11.5267 85.1224 10.58C85.2824 9.62 85.5824 8.96667 86.0224 8.62C86.4758 8.26 87.1891 8.08 88.1624 8.08C88.4558 8.08 88.7558 8.10667 89.0624 8.16C89.3824 8.2 89.6291 8.26 89.8024 8.34V9.3C89.3358 9.16667 88.8491 9.1 88.3424 9.1C87.5958 9.1 87.0624 9.23333 86.7424 9.5C86.4358 9.75333 86.2358 10.2733 86.1424 11.06C86.0491 11.8467 86.0024 13.2 86.0024 15.12C86.0024 17.04 86.0491 18.3933 86.1424 19.18C86.2358 19.9667 86.4358 20.4933 86.7424 20.76C87.0624 21.0133 87.5958 21.14 88.3424 21.14C88.5824 21.14 88.8424 21.12 89.1224 21.08C89.4158 21.04 89.6558 20.9933 89.8424 20.94V21.94ZM94.5701 22.16C93.5301 22.16 92.7834 21.9867 92.3301 21.64C91.8767 21.2933 91.5767 20.6533 91.4301 19.72C91.2967 18.7867 91.2301 17.2533 91.2301 15.12C91.2301 12.9867 91.2967 11.4533 91.4301 10.52C91.5767 9.58667 91.8767 8.94667 92.3301 8.6C92.7834 8.25333 93.5301 8.08 94.5701 8.08C95.6101 8.08 96.3567 8.25333 96.8101 8.6C97.2634 8.94667 97.5567 9.58667 97.6901 10.52C97.8367 11.4533 97.9101 12.9867 97.9101 15.12C97.9101 17.2533 97.8367 18.7867 97.6901 19.72C97.5567 20.6533 97.2634 21.2933 96.8101 21.64C96.3567 21.9867 95.6101 22.16 94.5701 22.16ZM94.5701 21.14C95.2767 21.14 95.7701 21.0333 96.0501 20.82C96.3301 20.6067 96.5234 20.1 96.6301 19.3C96.7367 18.5 96.7901 17.1067 96.7901 15.12C96.7901 13.1333 96.7367 11.74 96.6301 10.94C96.5234 10.14 96.3301 9.63333 96.0501 9.42C95.7701 9.20667 95.2767 9.1 94.5701 9.1C93.8634 9.1 93.3701 9.20667 93.0901 9.42C92.8101 9.63333 92.6167 10.1467 92.5101 10.96C92.4034 11.76 92.3501 13.1467 92.3501 15.12C92.3501 17.0933 92.4034 18.4867 92.5101 19.3C92.6167 20.1 92.8101 20.6067 93.0901 20.82C93.3701 21.0333 93.8634 21.14 94.5701 21.14ZM107.627 22V10.38H107.527L104.927 22H103.727L101.167 10.38H101.067V22H100.007V8.24H101.667L104.307 20.04H104.427L107.087 8.24H108.707V22H107.627ZM110.94 22V20.44H112.2V22H110.94ZM120.6 8.24V16.08C120.6 17.8533 120.54 19.14 120.42 19.94C120.3 20.7267 120.02 21.2933 119.58 21.64C119.154 21.9867 118.454 22.16 117.48 22.16C116.494 22.16 115.78 21.9867 115.34 21.64C114.914 21.2933 114.64 20.7267 114.52 19.94C114.4 19.14 114.34 17.8533 114.34 16.08V8.24H115.44V16.76C115.44 18.08 115.48 19.0267 115.56 19.6C115.64 20.16 115.814 20.56 116.08 20.8C116.36 21.0267 116.827 21.14 117.48 21.14C118.12 21.14 118.574 21.0267 118.84 20.8C119.12 20.56 119.3 20.16 119.38 19.6C119.46 19.0267 119.5 18.08 119.5 16.76V8.24H120.6ZM128.297 22L127.437 17.96H123.997L123.157 22H122.037L125.017 8.24H126.457L129.437 22H128.297ZM125.777 9.9H125.657L124.177 16.96H127.257L125.777 9.9Z" fill="white"/>
</g>
<defs>
<filter id="filter0_d" x="0.216797" y="8.08" width="133.22" height="22.08" filterUnits="userSpaceOnUse" color-interpolation-filters="sRGB">
<feFlood flood-opacity="0" result="BackgroundImageFix"/>
<feColorMatrix in="SourceAlpha" type="matrix" values="0 0 0 0 0 0 0 0 0 0 0 0 0 0 0 0 0 0 127 0" result="hardAlpha"/>
<feOffset dy="4"/>
<feGaussianBlur stdDeviation="2"/>
<feComposite in2="hardAlpha" operator="out"/>
<feColorMatrix type="matrix" values="0 0 0 0 1 0 0 0 0 1 0 0 0 0 1 0 0 0 0.16 0"/>
<feBlend mode="normal" in2="BackgroundImageFix" result="effect1_dropShadow"/>
<feBlend mode="normal" in="SourceGraphic" in2="effect1_dropShadow" result="shape"/>
</filter>
</defs>
</svg>
